<?xml version="1.0" encoding="utf-8"?>
<!-- Generator: Adobe Illustrator 16.0.0, SVG Export Plug-In . SVG Version: 6.00 Build 0)  -->
<!DOCTYPE svg PUBLIC "-//W3C//DTD SVG 1.1//EN" "http://www.w3.org/Graphics/SVG/1.1/DTD/svg11.dtd">
<svg version="1.1" id="svg16413" xmlns:svg="http://www.w3.org/2000/svg"
	 xmlns="http://www.w3.org/2000/svg" xmlns:xlink="http://www.w3.org/1999/xlink" x="0px" y="0px" width="299px" height="356px"
	 viewBox="0 0 299 356" enable-background="new 0 0 299 356" xml:space="preserve">
<g id="layer1">
	<path id="path16479" fill="#FC0606" d="M140.401,350.283c-0.948-1.144-1.373-4.557-1.373-11.049v-9.395l-4-1.816
		c-8.888-4.035-12.5-10.053-12.5-20.822c0-5.658,0.433-7.437,2.575-10.59c2.754-4.054,2.757-4.043-1.91-9.162
		c-6.462-7.089-8.008-24.326-2.69-29.986c1.114-1.186,2.025-2.61,2.025-3.166c0-0.557-2.072-3.678-4.604-6.936
		c-7.864-10.119-8.821-12.65-8.861-23.425c-0.032-8.678,0.214-9.933,2.845-14.5c1.584-2.75,4.194-6.394,5.798-8.098l2.918-3.098
		l-3.664-4.386c-2.015-2.412-4.822-6.867-6.237-9.902c-2.278-4.885-2.58-6.834-2.634-17.017c-0.053-9.974,0.247-12.182,2.261-16.633
		c1.277-2.823,3.64-6.395,5.25-7.937c2.837-2.718,3.855-5.43,2.038-5.43c-0.49,0-3.369-2.44-6.399-5.422
		c-8.406-8.273-12.751-22.578-9.323-30.695l1.527-3.617l-3.708-3.01c-3.638-2.953-5.642-6.093-8.578-13.44l-1.472-3.683l-5.07,1.621
		c-4.856,1.553-5.291,1.533-10.329-0.486c-3.295-1.32-7.365-2.084-10.899-2.045c-3.964,0.043-7.072-0.632-10.465-2.274
		c-2.654-1.285-6.825-2.454-9.269-2.598c-2.976-0.175-6.289-1.396-10.035-3.697c-3.991-2.452-6.809-3.449-9.842-3.482
		c-4.802-0.053-12.61-3.851-16.706-8.126l-2.601-2.715l5.561-1.245c6.775-1.516,24.799-10.536,36.996-18.514
		c4.95-3.238,15.3-10.033,23-15.101C87.208,7.101,88.501,6.436,96.324,4.897c18.111-3.563,32.39,4.758,34.71,20.228
		c0.894,5.962-0.779,11.186-5.146,16.065c-1.848,2.064-3.359,4.161-3.359,4.661c0,0.5,1.438,2.118,3.195,3.596
		c2.583,2.173,3.863,2.58,6.681,2.123c5.282-0.857,6.102-2.27,6.19-10.662c0.059-5.655-0.425-8.492-1.993-11.672
		c-4.294-8.709-1.833-17.984,5.835-21.994c10.384-5.429,21.583-0.014,22.828,11.037c0.348,3.092-0.209,5.638-2.172,9.929
		c-2.32,5.07-2.605,6.829-2.352,14.5l0.288,8.729l4.698,0.303c4.319,0.278,10.802-1.812,10.802-3.484
		c0-0.346-1.057-2.022-2.349-3.724c-5.762-7.592-6.256-19.914-1.105-27.581c6.39-9.515,15.017-12.621,27.734-9.985
		c11.677,2.419,16.568,5.342,44.893,26.82c6.779,5.142,18.178,12.705,25.327,16.808c12.372,7.099,13.254,7.441,18.25,7.069
		c4.828-0.358,5.25-0.217,5.25,1.763c0,2.934-6.36,10.146-11.067,12.546c-2.119,1.081-5.616,1.966-7.771,1.966
		c-2.156,0-6.479,1.171-9.606,2.604c-4.63,2.12-6.523,2.478-10.188,1.929c-3.194-0.479-5.141-0.255-6.706,0.77
		c-2.505,1.641-8.613,2.846-16.661,3.285c-16.563,0.905-22.122,1.37-23.026,1.929c-0.553,0.341-1.635,2.129-2.404,3.973
		c-1.555,3.721-5.622,8.264-9.819,10.969c-2.525,1.627-2.75,2.29-2.75,8.128c0,8.936-3.261,15.807-11.604,24.448l-6.648,6.886
		l4.124,4.926c6.139,7.332,8.08,12.352,8.105,20.96c0.041,13.438-3.266,21.009-12.693,29.069l-4.744,4.055l3.072,3.284
		c7.264,7.771,7.893,9.4,7.828,20.285c-0.072,12.3-1.699,15.978-10.414,23.558c-5.583,4.856-7.515,7.942-4.971,7.942
		c0.58,0,2.203,2.587,3.607,5.75c4.428,9.972,2.41,20.341-5.766,29.629c-2.143,2.435-3.897,4.677-3.897,4.979
		c0,0.305,1.125,2.211,2.5,4.236c2.024,2.982,2.5,4.906,2.5,10.094c0,11.276-7.028,20.312-15.8,20.312h-2.899l-0.681,11.21
		c-0.625,10.29-1.337,12.716-3.748,12.774C142.056,351.93,141.156,351.192,140.401,350.283z M143.528,324.377
		c0-14.603-0.356-22.44-1.021-22.44c-0.669,0-0.975,7.925-0.886,22.988c0.077,13.063,0.518,22.753,1.021,22.441
		C143.13,347.064,143.528,336.72,143.528,324.377z M139.075,312.51c-0.121-8.839-1.438-10.616-4.082-5.506
		c-1.893,3.661-1.327,10.381,1.3,15.42l1.57,3.013l0.66-2.5C138.886,321.562,139.134,316.869,139.075,312.51z M150.493,322.002
		c1.422-2.656,1.306-12.395-0.165-13.865c-2.236-2.236-2.652-1.216-2.976,7.302c-0.235,6.183,0.008,8.502,0.891,8.5
		C148.912,323.938,149.924,323.066,150.493,322.002z M158.635,317.264c6.424-10.395,3.973-18.373-8.703-28.327
		c-1.051-0.825-3.744-2.938-5.984-4.698c-2.241-1.758-5.332-5.012-6.869-7.229c-2.466-3.559-2.744-4.725-2.368-9.922l0.426-5.889
		l-4.159-2.632c-2.288-1.446-4.888-2.631-5.779-2.631c-4.261,0-6.42,12.877-3.379,20.154c2.917,6.981,12.1,14.961,21.708,18.866
		c5.022,2.04,10.776,8.271,11.577,12.535c0.662,3.529,0.211,8.589-1.198,13.444c-0.65,2.241-0.554,2.358,0.936,1.138
		C155.757,321.324,157.463,319.16,158.635,317.264z M129.853,316.027c-0.795-6.715,0.197-11.096,3.263-14.402
		c3.011-3.247,2.604-5.352-1.218-6.311c-2.226-0.559-3.148-0.158-5.11,2.221c-2.121,2.57-2.345,3.66-1.967,9.557
		c0.292,4.555,1.128,7.789,2.648,10.25c1.222,1.977,2.389,3.595,2.593,3.595S130.173,318.728,129.853,316.027z M159.682,284.187
		c5.194-4.684,7.803-10.282,7.803-16.75c0-9.586-5.909-17.741-18.478-25.5c-7.254-4.479-14.236-10.632-16.055-14.148
		c-2.242-4.335-1.804-11.012,0.993-15.133c2.789-4.11,2.864-3.993-6.179-9.651c-6.088-3.809-6.515-3.649-10.67,3.986
		c-3.985,7.322-4.474,14.907-1.546,24.012c1.918,5.965,3.295,8.159,8.417,13.408c3.714,3.807,8.603,7.527,12.427,9.458
		c12.325,6.222,18.283,14.142,14.724,19.573c-0.898,1.371-1.589,4.526-1.589,7.26C149.528,288.918,153.081,290.139,159.682,284.187z
		 M145.639,277.687c0.215-8.245-0.75-11.75-3.233-11.75c-1.352,0-1.06,13.418,0.322,14.8
		C144.809,282.816,145.525,282.066,145.639,277.687z M139.257,268.187c-0.399-1.667-0.455-1.667-1.181,0
		c-0.419,0.962-0.419,2.537,0,3.5c0.726,1.667,0.782,1.667,1.181,0C139.487,270.724,139.487,269.148,139.257,268.187z
		 M165.359,244.186c7.023-4.271,11.325-12.187,11.963-22.01c0.428-6.6,0.189-7.83-2.619-13.535c-1.698-3.451-4.12-7.206-5.381-8.345
		c-3.3-2.979-17.677-12.756-21.794-14.821c-1.925-0.967-6.317-3.619-9.76-5.897c-5.38-3.558-6.541-4.885-8.25-9.428
		c-3.25-8.639-2.573-14.599,2.262-19.912c2.763-3.036,1.813-4.612-4.782-7.937l-5.681-2.864l-3.509,4
		c-5.449,6.212-7.28,11.416-7.28,20.69c0,6.879,0.435,8.935,3.047,14.407c3.562,7.465,10.322,14.483,18.604,19.316
		c12.541,7.318,22.673,14.57,24.465,17.51c1.032,1.692,1.879,4.782,1.881,6.867c0.004,3.987-2.764,10.441-5.424,12.649
		c-2.649,2.198-1.773,4.788,2.677,7.907C160.854,246.342,161.627,246.455,165.359,244.186z M147.539,228.937
		c0.307-13.519,0.25-13.814-3.01-15.5l-3-1.552v10.486c0,9.51,0.205,10.678,2.195,12.531c1.207,1.125,2.526,1.705,2.931,1.289
		C147.06,235.776,147.458,232.512,147.539,228.937z M153.908,225.757c0.198-5.464-1.848-4.829-2.189,0.68
		c-0.24,3.86-0.039,4.731,0.879,3.82C153.252,229.607,153.842,227.583,153.908,225.757z M138.747,219.754
		c-1.45-1.449-2.585,2.651-1.661,6.005c0.724,2.628,0.755,2.607,1.709-1.153C139.441,222.053,139.425,220.434,138.747,219.754z
		 M170.496,187.461c8.348-6.129,12.314-14.26,12.453-25.524c0.056-4.567-0.502-7.672-1.875-10.441
		c-1.88-3.791-10.396-13.559-11.819-13.559c-0.38,0-3.579-1.768-7.108-3.928c-3.599-2.203-11.623-5.581-18.268-7.69
		c-13.385-4.25-22.254-9.115-26.699-14.647c-2.417-3.008-3.113-4.968-3.458-9.75c-0.457-6.308,0.312-7.294,3.198-4.105
		c4.018,4.44,14.064,3.171,18.385-2.322c2.273-2.89,2.066-4.99-0.604-6.095c-7.299-3.022-16.001-2.052-22.656,2.526
		c-8.426,5.798-10.829,15.554-6.105,24.795c4.453,8.712,10.793,13.44,32.397,24.154c18.185,9.02,21.453,11.129,24.255,15.666
		c3.854,6.234,1.432,15.895-5.584,22.279c-3.907,3.556-4.274,5.113-1.729,7.338c2.345,2.049,7.424,4.69,9.116,4.74
		C165.146,190.918,167.892,189.372,170.496,187.461z M121.253,92.328c-1.239-1.239,0.369-2.392,3.334-2.392
		c1.618,0,2.941,0.45,2.941,1c0,0.55-0.638,1-1.418,1c-0.78,0-2.041,0.239-2.802,0.531C122.547,92.76,121.622,92.697,121.253,92.328
		z M150,168.766c0.722-13.042,0.706-13.188-1.622-14.983c-3.048-2.352-5.864-3.264-6.776-2.196
		c-0.399,0.467-0.466,6.829-0.149,14.137c0.558,12.874,0.654,13.329,3.076,14.651C149.109,182.877,149.234,182.61,150,168.766z
		 M157.99,173.634c2.617-3.994,2.808-7.89,0.562-11.498c-1.13-1.814-2.497-3.025-3.038-2.691
		c-1.287,0.795-1.295,16.491-0.008,16.491C156.043,175.937,157.161,174.9,157.99,173.634z M138.528,165.437
		c0-7.677-0.281-9.5-1.465-9.5c-1.708,0-3.021,2.209-3.985,6.701c-0.481,2.243-0.085,4.562,1.326,7.75
		C137.501,177.389,138.528,176.156,138.528,165.437z M172.844,132.804c9.504-4.926,17.634-16.565,18.418-26.368
		c0.445-5.578,0.256-6.281-2.695-10c-4.898-6.172-10.141-8.85-17.419-8.898c-6.632-0.044-11.899,1.897-12.415,4.575
		c-0.176,0.914,0.99,3.127,2.59,4.918c2.535,2.838,3.672,3.311,8.855,3.686c5.285,0.382,6.291,0.141,9.043-2.175
		c1.703-1.433,3.375-2.605,3.714-2.605c0.847,0-0.444,8.033-1.688,10.5c-3.596,7.139-12.773,14.756-21.022,17.449
		c-5.106,1.667-4.498,3.551,2.305,7.145C168.643,134.26,169.688,134.44,172.844,132.804z M170.278,92.247
		c-2.82-0.737-2.009-2.311,1.191-2.311c3.327,0,4.854,1.48,2.472,2.395c-0.867,0.333-1.652,0.553-1.744,0.489
		C172.104,92.757,171.241,92.499,170.278,92.247z M151.671,123.687c0.415-3.645,0.788-10.611,1.829-34.25
		c0.631-14.3,1.321-26.537,1.534-27.192s0.467-6.505,0.563-13l0.178-11.808l-6.851-0.689c-3.768-0.379-6.99-0.55-7.16-0.38
		c-0.17,0.17-0.519,19.241-0.775,42.379c-0.366,33.015-0.196,42.244,0.786,42.88c1.639,1.061,6.911,3.039,8.502,3.191
		C150.966,124.883,151.593,124.374,151.671,123.687z M162.834,120.01c4.562-2.096,11.694-8.168,11.694-9.958
		c0-0.614-0.675-1.115-1.5-1.115s-1.388-0.515-1.25-1.145s-1.309-1.567-3.214-2.084c-1.904-0.517-5.055-2.34-7-4.051l-3.536-3.111
		l-0.301,6.311c-0.165,3.471-0.077,6.535,0.196,6.808c0.273,0.273,2.546-0.202,5.051-1.056c6.198-2.112,5.759-0.575-0.688,2.404
		c-5.1,2.357-6.561,4.391-5.375,7.481C157.618,122.333,157.809,122.317,162.834,120.01z M138.285,117.753
		c-0.7-1.811-12.755-8.817-15.171-8.817c-1.735,0-1.624,0.351,0.969,3.057C130.196,118.374,140.073,122.38,138.285,117.753z
		 M137.729,111.187c0.748-3.014,0.979-12.25,0.307-12.25c-0.353,0-2.074,1.084-3.824,2.409c-1.751,1.325-4.724,3.031-6.605,3.792
		l-3.422,1.382l5.922,3.06C137.413,113.355,137.202,113.311,137.729,111.187z M198.164,90.457c2.359-2.464,5.039-5.62,5.952-7.014
		c1.636-2.497,1.589-2.612-3.194-7.771c-2.67-2.88-5.201-5.387-5.625-5.57s-2.807,1.458-5.295,3.648
		c-6.732,5.926-10.863,7.59-18.974,7.642c-3.85,0.024-8.125-0.181-9.5-0.456c-2.286-0.457-2.5-0.2-2.5,3
		c0,3.856-0.128,3.825,7.899,1.93c6.348-1.498,14.964,0.91,20.377,5.694c2.048,1.811,4.363,3.312,5.146,3.334
		C193.232,94.917,195.803,92.921,198.164,90.457z M109.438,90.546c0.635-0.765,3.49-2.396,6.346-3.624
		c4.26-1.833,6.316-2.128,11.463-1.648c3.449,0.322,7.115,1.037,8.146,1.589c2.342,1.253,3.137,0.496,3.137-2.991v-2.73l-8.25,0.027
		c-6.32,0.021-9.328-0.468-12.857-2.087c-4.282-1.964-10.925-8.218-13.496-12.703c-1.022-1.785-1.443-1.561-5.75,3.063
		c-2.555,2.744-4.646,5.571-4.646,6.281c0,2.775,4.133,9.17,8.146,12.605C106.267,92.26,107.68,92.664,109.438,90.546z
		 M220.947,79.33c2.398-0.92,1.926-2.017-1.881-4.37c-1.903-1.177-5.538-5.263-8.076-9.082c-4.121-6.199-4.961-6.942-7.838-6.942
		c-7.016,0-7.359,4.229-0.905,11.13c4.907,5.247,8.681,7.693,13.781,8.935c1.65,0.401,3.075,0.776,3.169,0.833
		C219.289,79.89,220.076,79.663,220.947,79.33z M135.159,75.385c2.715-0.543,3.339-2.992,3.355-13.183l0.014-8.235l-5.99,0.626
		l-5.99,0.626l-4.51-4.51c-5.604-5.604-5.868-8.491-1.138-12.45c4.552-3.81,6.628-8.242,6.628-14.145c0-4.28-0.488-5.463-3.75-9.083
		c-4.967-5.513-11.476-7.906-20.851-7.668c-6.129,0.156-8.251,0.753-15.5,4.358c-4.619,2.298-10.932,5.874-14.028,7.946
		c-3.096,2.073-9.396,6.289-14,9.37C41.158,41.245,31.697,46.526,14.041,54.361l-3.988,1.77l2.834,1.485
		c5.184,2.716,12.929,2.846,19.88,0.334c11.738-4.243,43.135-23.982,46.08-28.971c2.411-4.084,3.683-3.029,3.683,3.056
		c0,11.651,10.623,21.875,22.75,21.896c1.788,0.003,3.25,0.456,3.25,1.006c0,0.55-0.509,1-1.131,1
		c-1.813,0-0.355,7.508,2.138,11.008c2.88,4.045,9.105,7.922,14.33,8.924C127.717,76.608,129.409,76.535,135.159,75.385z
		 M244.528,75.959c0-0.538-1.237-1.729-2.75-2.648c-7.14-4.339-12.091-8.02-15.841-11.777c-8.204-8.217-7.859-8.035-11.344-5.978
		c-1.686,0.996-3.065,2.545-3.065,3.443c0,2.569,11.397,12.777,17.223,15.423C234.138,76.871,244.528,77.883,244.528,75.959z
		 M86.594,72.888c1.96-0.992,5.698-3.713,8.305-6.046c7.722-6.911,8.02-9.179,1.371-10.427c-3.647-0.684-3.948-0.505-10.498,6.241
		c-3.708,3.82-7.98,7.748-9.493,8.728c-3.177,2.059-3.475,3.212-1,3.872C77.824,75.936,82.51,74.955,86.594,72.888z M177.027,74.833
		c5.857-1.475,11.928-6.83,14.055-12.396c1.384-3.625,1.471-4.767,0.455-5.99c-0.689-0.831-1.086-1.526-0.881-1.545
		c0.205-0.019,3.816-0.131,8.026-0.25c6.814-0.192,8.132-0.561,12-3.357c6.729-4.864,10.321-13.279,8.691-20.358
		c-0.786-3.417,2.513-1.173,4.021,2.734c1.656,4.292,9.531,11.28,25.916,22.995c13.293,9.505,29.49,13.435,36.468,8.848
		c3.765-2.474,3.45-4.051-1.077-5.408c-9.733-2.916-28.4-14.301-48.979-29.872C209.23,10.19,200.006,6.437,184.797,9.514
		c-3.199,0.647-9.334,6.337-10.918,10.125c-2.899,6.941-1.017,15.071,4.902,21.17l3.736,3.849l-2.244,3.297
		c-4.582,6.731-10.379,8.852-17.995,6.583l-2.75-0.819v10.08v10.08l3.25,0.938C167.298,76.123,171.885,76.127,177.027,74.833z
		 M260.947,73.33c1.695-0.651,2.209-3.393,0.635-3.393c-1.936,0-21.828-14.021-28.938-20.397c-7.618-6.831-9.474-7.717-10.508-5.021
		c-1.542,4.019-0.505,6.65,4.643,11.786C238.786,68.282,254.15,75.938,260.947,73.33z M69.543,69.464
		c2.483-1.266,8.005-4.909,12.271-8.095l7.756-5.793l-3.217-3.32c-1.77-1.826-3.575-3.32-4.011-3.32
		c-0.436,0-3.162,2.137-6.056,4.75c-6.713,6.059-14.097,11.413-19.508,14.145c-5.09,2.57-5.378,3.836-1,4.39
		C60.571,72.828,64.479,72.045,69.543,69.464z M53.028,64.069c5.377-2.568,27.5-16.597,27.5-17.438c0-1.492-3.356-9.695-3.967-9.695
		c-0.429,0-6.574,4.342-13.656,9.65c-11.193,8.389-24.979,16.35-28.311,16.35c-2.373,0-0.853,2.004,2.184,2.881
		C42.53,67.478,46.868,67.011,53.028,64.069z M158.643,28.968c7.143-8.555,1.785-20.032-9.349-20.032
		c-4.313,0-5.411,0.446-8.365,3.4c-2.914,2.913-3.4,4.081-3.4,8.155c0,4.277,0.418,5.152,4.16,8.712
		c3.948,3.756,4.416,3.933,9.212,3.472C155.062,32.275,156.429,31.621,158.643,28.968z M149.123,28.089
		c-0.343-0.555,0.309-1.305,1.447-1.667c3.07-0.974,5.722-7.035,4.168-9.523c-2.491-3.988-0.047-5.651,3.135-2.135
		c2.357,2.604,2.077,7.588-0.595,10.578C154.813,28.102,150.109,29.686,149.123,28.089z"/>
</g>
</svg>
